<?xml version="1.0" encoding="UTF-8" standalone="no"?>
<!DOCTYPE svg PUBLIC "-//W3C//DTD SVG 1.1//EN" "http://www.w3.org/Graphics/SVG/1.1/DTD/svg11.dtd">
<svg width="100%" height="100%" viewBox="0 0 7910 3620" version="1.1" xmlns="http://www.w3.org/2000/svg" xmlns:xlink="http://www.w3.org/1999/xlink" xml:space="preserve" xmlns:serif="http://www.serif.com/" style="fill-rule:evenodd;clip-rule:evenodd;stroke-linejoin:round;stroke-miterlimit:2;">
    <g id="Plan-de-travail2" serif:id="Plan de travail2" transform="matrix(1,0,0,0.929006,196.881,479.658)">
        <rect x="-196.881" y="-516.313" width="7909.46" height="3895.9" style="fill:none;"/>
        <clipPath id="_clip1">
            <rect x="-196.881" y="-516.313" width="7909.46" height="3895.9"/>
        </clipPath>
        <g clip-path="url(#_clip1)">
            <g transform="matrix(5.55556,0,0,5.98011,-208.881,-15748.7)">
                <rect x="0.999" y="2549.5" width="1439" height="320.499" style="fill:rgb(119,86,255);fill-opacity:0.81;"/>
            </g>
            <g transform="matrix(5.55556,0,0,5.98011,-208.881,-12876.8)">
                <rect x="0.999" y="2389.75" width="1439" height="159.75" style="fill:rgb(119,86,255);fill-opacity:0.61;"/>
            </g>
            <g transform="matrix(5.55556,0,0,5.98011,-208.881,-11443.8)">
                <rect x="0.999" y="2309.88" width="1439" height="79.875" style="fill:rgb(119,86,255);fill-opacity:0.41;"/>
            </g>
            <g transform="matrix(5.55556,0,0,5.98011,-208.881,-10727.3)">
                <rect x="0.999" y="2269.94" width="1439" height="39.938" style="fill:rgb(119,86,255);fill-opacity:0.2;"/>
            </g>
            <g transform="matrix(5.55556,0,0,5.98011,-208.881,-10369.1)">
                <rect x="0.999" y="2249.97" width="1439" height="19.969" style="fill:rgb(119,86,255);fill-opacity:0.1;"/>
            </g>
            <g transform="matrix(5.55556,0,0,5.98011,-208.881,-10130.2)">
                <rect x="0.999" y="2230" width="1439" height="19.969" style="fill:rgb(119,86,255);fill-opacity:0.05;"/>
            </g>
        </g>
    </g>
</svg>
