<?xml version="1.0" encoding="UTF-8" standalone="no"?>
<!DOCTYPE svg PUBLIC "-//W3C//DTD SVG 1.1//EN" "http://www.w3.org/Graphics/SVG/1.1/DTD/svg11.dtd">
<svg width="100%" height="100%" viewBox="0 0 7910 3620" version="1.1" xmlns="http://www.w3.org/2000/svg" xmlns:xlink="http://www.w3.org/1999/xlink" xml:space="preserve" xmlns:serif="http://www.serif.com/" style="fill-rule:evenodd;clip-rule:evenodd;stroke-linejoin:round;stroke-miterlimit:2;">
    <g id="Plan-de-travail2" serif:id="Plan de travail2" transform="matrix(1,0,0,0.929006,196.881,479.658)">
        <rect x="-196.881" y="-516.313" width="7909.46" height="3895.9" style="fill:none;"/>
        <clipPath id="_clip1">
            <rect x="-196.881" y="-516.313" width="7909.46" height="3895.9"/>
        </clipPath>
        <g clip-path="url(#_clip1)">
            <g transform="matrix(5.55556,0,0,5.98011,-236.15,-23461.6)">
                <rect x="1" y="3831" width="1439" height="320" style="fill:rgb(233,55,41);fill-opacity:0.81;"/>
            </g>
            <g transform="matrix(5.55556,0,0,5.98011,-236.15,-20591.1)">
                <rect x="1" y="3671" width="1439" height="160" style="fill:rgb(233,55,41);fill-opacity:0.61;"/>
            </g>
            <g transform="matrix(5.55556,0,0,5.98011,-236.15,-19155.9)">
                <rect x="1" y="3591" width="1439" height="80" style="fill:rgb(233,55,41);fill-opacity:0.41;"/>
            </g>
            <g transform="matrix(5.55556,0,0,5.98011,-236.15,-18438.3)">
                <rect x="1" y="3551" width="1439" height="40" style="fill:rgb(233,55,41);fill-opacity:0.2;"/>
            </g>
            <g transform="matrix(5.55556,0,0,5.98011,-236.15,-18079.5)">
                <rect x="1" y="3531" width="1439" height="20" style="fill:rgb(233,55,41);fill-opacity:0.1;"/>
            </g>
            <g transform="matrix(5.55556,0,0,5.98011,-236.15,-17840.3)">
                <rect x="1" y="3511" width="1439" height="20" style="fill:rgb(233,55,41);fill-opacity:0.05;"/>
            </g>
        </g>
    </g>
</svg>
